<svg width="42" height="41" viewBox="0 0 42 41" fill="none" xmlns="http://www.w3.org/2000/svg">
<path d="M20.5158 31.7892C22.4544 31.7892 24.0315 33.3658 24.0315 35.3037C24.0315 37.2416 22.4544 38.8181 20.5158 38.8181C18.5772 38.8181 17.0001 37.2416 17.0001 35.3037C17.0001 33.3658 18.5772 31.7892 20.5158 31.7892ZM20.5158 29.6065C17.368 29.6065 14.8174 32.1571 14.8174 35.3028C14.8174 38.4484 17.369 40.9991 20.5158 40.9991C23.6626 40.9991 26.2142 38.4484 26.2142 35.3028C26.2142 32.1571 23.6626 29.6065 20.5158 29.6065Z" fill="#0000FF"/>
<path d="M35.3346 16.9762C37.2732 16.9762 38.8504 18.5528 38.8504 20.4907C38.8504 22.4286 37.2732 24.0051 35.3346 24.0051C33.396 24.0051 31.8189 22.4286 31.8189 20.4907C31.8189 18.5528 33.396 16.9762 35.3346 16.9762ZM35.3346 14.7944C32.1869 14.7944 29.6362 17.345 29.6362 20.4907C29.6362 23.6364 32.1878 26.187 35.3346 26.187C38.4815 26.187 41.0331 23.6364 41.0331 20.4907C41.0331 17.345 38.4815 14.7944 35.3346 14.7944Z" fill="#0000FF"/>
<path d="M20.5158 2.18279C22.4544 2.18279 24.0315 3.75936 24.0315 5.69724C24.0315 7.63512 22.4544 9.21168 20.5158 9.21168C19.5768 9.21168 18.6936 8.84571 18.0304 8.18268C17.3662 7.51872 17.001 6.63684 17.001 5.69817C17.001 3.76029 18.5781 2.18372 20.5167 2.18372M20.5158 0C17.368 0 14.8174 2.55063 14.8174 5.69631C14.8174 8.84292 17.369 11.3926 20.5158 11.3926C23.6626 11.3926 26.2142 8.84199 26.2142 5.69631C26.2142 2.55063 23.6636 0 20.5158 0Z" fill="#0000FF"/>
<path d="M25.9834 24.4475L24.4585 25.9719L35.2325 36.7419L36.7575 35.2175L25.9834 24.4475Z" fill="#0000FF"/>
<path d="M35.2226 4.25215L24.4492 15.0215L25.9933 16.565L36.7666 5.79562L35.2226 4.25215Z" fill="#0000FF"/>
<path d="M5.69842 16.9762C7.63701 16.9762 9.21416 18.5528 9.21416 20.4907C9.21416 22.4286 7.63701 24.0051 5.69842 24.0051C3.75982 24.0051 2.18267 22.4286 2.18267 20.4907C2.18267 18.5528 3.75982 16.9762 5.69842 16.9762ZM5.69842 14.7944C2.55064 14.7944 0 17.345 0 20.4907C0 23.6373 2.55157 26.187 5.69842 26.187C8.84619 26.187 11.3968 23.6364 11.3968 20.4907C11.3968 17.3441 8.84526 14.7944 5.69842 14.7944Z" fill="#0000FF"/>
<path d="M5.80918 4.25138L4.26514 5.79485L15.0385 16.5642L16.5825 15.0208L5.80918 4.25138Z" fill="#0000FF"/>
<path d="M4.27588 35.218L15.0495 24.4484L16.5726 25.9709L5.799 36.7406L4.27588 35.218Z" fill="#0000FF"/>
</svg>
