<svg width="103" height="103" viewBox="0 0 103 103" fill="none" xmlns="http://www.w3.org/2000/svg">
<path d="M51.0834 79.8608C55.9104 79.8608 59.8374 83.8214 59.8374 88.6898C59.8374 93.5581 55.9104 97.5187 51.0834 97.5187C46.2564 97.5187 42.3294 93.5581 42.3294 88.6898C42.3294 83.8214 46.2564 79.8608 51.0834 79.8608ZM51.0834 74.3772C43.2456 74.3772 36.8947 80.7849 36.8947 88.6874C36.8947 96.59 43.248 102.998 51.0834 102.998C58.9188 102.998 65.2721 96.59 65.2721 88.6874C65.2721 80.7849 58.9188 74.3772 51.0834 74.3772Z" fill="white"/>
<path d="M87.9804 42.6476C92.8074 42.6476 96.7344 46.6083 96.7344 51.4766C96.7344 56.3449 92.8074 60.3056 87.9804 60.3056C83.1534 60.3056 79.2264 56.3449 79.2264 51.4766C79.2264 46.6083 83.1534 42.6476 87.9804 42.6476ZM87.9804 37.1664C80.1427 37.1664 73.7917 43.5741 73.7917 51.4766C73.7917 59.3792 80.145 65.7868 87.9804 65.7868C95.8158 65.7868 102.169 59.3792 102.169 51.4766C102.169 43.5741 95.8158 37.1664 87.9804 37.1664Z" fill="white"/>
<path d="M51.0834 5.4836C55.9104 5.4836 59.8374 9.44424 59.8374 14.3126C59.8374 19.1809 55.9104 23.1415 51.0834 23.1415C48.7453 23.1415 46.5464 22.2222 44.8948 20.5565C43.241 18.8885 42.3317 16.673 42.3317 14.3149C42.3317 9.44658 46.2587 5.48594 51.0857 5.48594M51.0834 0C43.2456 0 36.8947 6.40767 36.8947 14.3102C36.8947 22.2151 43.248 28.6205 51.0834 28.6205C58.9188 28.6205 65.2721 22.2128 65.2721 14.3102C65.2721 6.40767 58.9211 0 51.0834 0Z" fill="white"/>
<path d="M64.697 61.4169L60.9001 65.2464L87.7266 92.3028L91.5236 88.4733L64.697 61.4169Z" fill="white"/>
<path d="M87.7021 10.6822L60.8772 37.737L64.7217 41.6145L91.5467 14.5597L87.7021 10.6822Z" fill="white"/>
<path d="M14.1887 42.6476C19.0156 42.6476 22.9426 46.6083 22.9426 51.4766C22.9426 56.3449 19.0156 60.3056 14.1887 60.3056C9.36169 60.3056 5.4347 56.3449 5.4347 51.4766C5.4347 46.6083 9.36169 42.6476 14.1887 42.6476ZM14.1887 37.1664C6.35092 37.1664 0 43.5741 0 51.4766C0 59.3815 6.35324 65.7868 14.1887 65.7868C22.0264 65.7868 28.3773 59.3792 28.3773 51.4766C28.3773 43.5717 22.0241 37.1664 14.1887 37.1664Z" fill="white"/>
<path d="M14.4644 10.6803L10.6198 14.5578L37.4448 41.6126L41.2893 37.7351L14.4644 10.6803Z" fill="white"/>
<path d="M10.6467 88.4745L37.4723 61.4191L41.2648 65.2441L14.4392 92.2995L10.6467 88.4745Z" fill="white"/>
</svg>
