<svg width="395" height="155" viewBox="0 0 395 155" fill="none" xmlns="http://www.w3.org/2000/svg">
<g clip-path="url(#clip0_2_143)">
<path d="M63.0834 79.8608C67.9104 79.8608 71.8374 83.8214 71.8374 88.6898C71.8374 93.5581 67.9104 97.5187 63.0834 97.5187C58.2564 97.5187 54.3294 93.5581 54.3294 88.6898C54.3294 83.8214 58.2564 79.8608 63.0834 79.8608ZM63.0834 74.3772C55.2456 74.3772 48.8947 80.7849 48.8947 88.6874C48.8947 96.59 55.248 102.998 63.0834 102.998C70.9188 102.998 77.2721 96.59 77.2721 88.6874C77.2721 80.7849 70.9188 74.3772 63.0834 74.3772Z" fill="white"/>
<path d="M99.9804 42.6476C104.807 42.6476 108.734 46.6083 108.734 51.4766C108.734 56.3449 104.807 60.3056 99.9804 60.3056C95.1534 60.3056 91.2264 56.3449 91.2264 51.4766C91.2264 46.6083 95.1534 42.6476 99.9804 42.6476ZM99.9804 37.1664C92.1427 37.1664 85.7917 43.5741 85.7917 51.4766C85.7917 59.3792 92.145 65.7868 99.9804 65.7868C107.816 65.7868 114.169 59.3792 114.169 51.4766C114.169 43.5741 107.816 37.1664 99.9804 37.1664Z" fill="white"/>
<path d="M63.0834 5.4836C67.9104 5.4836 71.8374 9.44424 71.8374 14.3126C71.8374 19.1809 67.9104 23.1415 63.0834 23.1415C60.7453 23.1415 58.5464 22.2222 56.8948 20.5565C55.241 18.8885 54.3317 16.673 54.3317 14.3149C54.3317 9.44658 58.2587 5.48594 63.0857 5.48594M63.0834 0C55.2456 0 48.8947 6.40767 48.8947 14.3102C48.8947 22.2151 55.248 28.6205 63.0834 28.6205C70.9188 28.6205 77.2721 22.2128 77.2721 14.3102C77.2721 6.40767 70.9211 0 63.0834 0Z" fill="white"/>
<path d="M76.697 61.4169L72.9001 65.2464L99.7266 92.3028L103.524 88.4733L76.697 61.4169Z" fill="white"/>
<path d="M99.7021 10.6822L72.8772 37.737L76.7217 41.6145L103.547 14.5597L99.7021 10.6822Z" fill="white"/>
<path d="M26.1887 42.6476C31.0156 42.6476 34.9426 46.6083 34.9426 51.4766C34.9426 56.3449 31.0156 60.3056 26.1887 60.3056C21.3617 60.3056 17.4347 56.3449 17.4347 51.4766C17.4347 46.6083 21.3617 42.6476 26.1887 42.6476ZM26.1887 37.1664C18.3509 37.1664 12 43.5741 12 51.4766C12 59.3815 18.3532 65.7868 26.1887 65.7868C34.0264 65.7868 40.3773 59.3792 40.3773 51.4766C40.3773 43.5717 34.0241 37.1664 26.1887 37.1664Z" fill="white"/>
<path d="M26.4644 10.6803L22.6198 14.5578L49.4448 41.6126L53.2893 37.7351L26.4644 10.6803Z" fill="white"/>
<path d="M22.6467 88.4745L49.4723 61.4191L53.2648 65.2441L26.4392 92.2995L22.6467 88.4745Z" fill="white"/>
<path d="M154.239 9.59863H165.174L177.196 46.9685H168.437L165.897 38.6589H152.476L149.937 46.9685H142.059L154.237 9.59863H154.239ZM154.293 32.6466H164.086L159.215 16.4976L154.293 32.6466Z" fill="white"/>
<path d="M178.365 33.6385V33.2198C178.365 24.3885 184.635 19.0031 192.356 19.0031C198.626 19.0031 204.43 21.773 205.105 29.6124H198.005C197.487 26.4238 195.569 24.9616 192.512 24.9616C188.624 24.9616 186.033 27.8882 186.033 33.1145V33.5333C186.033 39.0215 188.469 41.8429 192.667 41.8429C195.673 41.8429 198.109 40.0649 198.471 36.5651H205.26C204.845 43.0453 200.183 47.5417 192.305 47.5417C184.428 47.5417 178.365 42.5774 178.365 33.6385Z" fill="white"/>
<path d="M208.275 39.3888C208.275 33.0115 214.079 30.609 222.371 30.609H225.429V29.5118C225.429 26.2717 224.443 24.4937 221.024 24.4937C218.071 24.4937 216.723 26.0097 216.412 28.3608H209.312C209.779 21.8806 214.858 19.0054 221.49 19.0054C228.122 19.0054 232.839 21.7238 232.839 29.1445V46.9662H225.533V43.6746C223.979 45.869 221.594 47.5417 217.345 47.5417C212.423 47.5417 208.275 45.1368 208.275 39.3888ZM225.429 37.4026V35.103H222.527C218.173 35.103 215.635 36.0434 215.635 38.97C215.635 40.9562 216.828 42.2616 219.574 42.2616C222.891 42.2616 225.431 40.4322 225.431 37.4003L225.429 37.4026Z" fill="white"/>
<path d="M236.915 33.6923V33.2736C236.915 24.2855 242.046 19.0054 248.833 19.0054C253.187 19.0054 255.88 20.9401 257.383 23.71V9.59863H264.845V46.9685H257.383V42.4207C255.984 45.1906 252.667 47.5417 248.677 47.5417C242.097 47.5417 236.915 42.7857 236.915 33.6923ZM257.591 33.4303V33.0116C257.591 27.5771 255.207 24.8072 251.113 24.8072C247.019 24.8072 244.583 27.6824 244.583 33.1168V33.5356C244.583 38.9701 247.174 41.637 250.906 41.637C254.845 41.637 257.591 38.9724 257.591 33.4326V33.4303Z" fill="white"/>
<path d="M268.85 33.6385V33.2198C268.85 24.5967 274.914 19.0031 282.791 19.0031C289.787 19.0031 296.005 23.1322 296.005 32.9063V34.9977H276.468C276.674 39.5456 279.11 42.1587 283.204 42.1587C286.676 42.1587 288.386 40.6427 288.852 38.3431H295.952C295.071 44.2501 290.406 47.5417 282.997 47.5417C274.809 47.5417 268.85 42.3669 268.85 33.6385ZM288.699 30.347C288.439 26.2179 286.368 24.2317 282.791 24.2317C279.423 24.2317 277.143 26.4799 276.572 30.347H288.699Z" fill="white"/>
<path d="M300.299 19.6324H307.812V23.8129C309.16 21.2513 312.061 19.0054 316.104 19.0054C319.681 19.0054 322.374 20.5214 323.671 23.7615C325.846 20.4699 329.37 19.0054 332.791 19.0054C337.818 19.0054 341.705 22.1941 341.705 29.458V46.9662H334.243V30.2931C334.243 26.791 332.689 25.2236 329.994 25.2236C327.092 25.2236 324.761 27.1045 324.761 30.8172V46.9662H317.299V30.2931C317.299 26.791 315.691 25.2236 313.049 25.2236C310.148 25.2236 307.817 27.1045 307.817 30.8172V46.9662H300.304V19.6324H300.299Z" fill="white"/>
<path d="M346.261 11.793C346.261 9.4419 348.126 7.66394 350.51 7.66394C352.895 7.66394 354.811 9.4419 354.811 11.793C354.811 14.1441 352.946 15.9221 350.51 15.9221C348.075 15.9221 346.261 14.1441 346.261 11.793ZM346.831 19.6324H354.293V46.9662H346.831V19.6324Z" fill="white"/>
<path d="M358.438 39.3888C358.438 33.0115 364.242 30.609 372.534 30.609H375.591V29.5118C375.591 26.2717 374.606 24.4937 371.187 24.4937C368.234 24.4937 366.886 26.0097 366.575 28.3608H359.475C359.941 21.8806 365.021 19.0054 371.653 19.0054C378.284 19.0054 383.002 21.7238 383.002 29.1445V46.9662H375.696V43.6746C374.142 45.869 371.757 47.5417 367.508 47.5417C362.586 47.5417 358.438 45.1368 358.438 39.3888ZM375.589 37.4026V35.103H372.687C368.334 35.103 365.796 36.0434 365.796 38.97C365.796 40.9562 366.988 42.2616 369.735 42.2616C373.051 42.2616 375.591 40.4322 375.591 37.4003L375.589 37.4026Z" fill="white"/>
<path d="M212.97 56.2701H221.448V93.633H212.97V56.2701Z" fill="white"/>
<path d="M142.062 80.3638V79.945C142.062 70.957 147.192 65.6769 153.979 65.6769C158.333 65.6769 161.026 67.6116 162.529 70.3815V56.2701H169.991V93.64H162.529V89.0921C161.131 91.862 157.814 94.2131 153.824 94.2131C147.244 94.2131 142.062 89.4571 142.062 80.3638ZM162.738 80.1018V79.683C162.738 74.2485 160.354 71.4787 156.26 71.4787C152.166 71.4787 149.73 74.3538 149.73 79.7883V80.207C149.73 85.6415 152.321 88.3084 156.053 88.3084C159.992 88.3084 162.738 85.6438 162.738 80.1041V80.1018Z" fill="white"/>
<path d="M173.999 80.3123V79.8935C173.999 71.2704 180.063 65.6769 187.94 65.6769C194.936 65.6769 201.154 69.806 201.154 79.5801V81.6715H181.617C181.823 86.2193 184.259 88.8325 188.353 88.8325C191.825 88.8325 193.535 87.3165 194.001 85.0169H201.101C200.22 90.9239 195.555 94.2155 188.146 94.2155C179.958 94.2155 173.999 89.0407 173.999 80.3123ZM193.846 77.0184C193.586 72.8893 191.514 70.9031 187.938 70.9031C184.57 70.9031 182.29 73.1513 181.719 77.0184H193.846Z" fill="white"/>
<path d="M237.284 56.2701H248.218L260.24 93.64H251.482L248.942 85.3304H235.521L232.981 93.64H225.104L237.281 56.2701H237.284ZM237.335 79.318H247.128L242.257 63.169L237.335 79.318Z" fill="white"/>
</g>
<path d="M24.8767 141.75H21.4017V148H18.6517V130.05H24.8767C28.9017 130.05 31.5017 132.1 31.5017 135.85C31.5017 139.625 28.9017 141.75 24.8767 141.75ZM24.8517 132.375H21.4017V139.425H24.8517C27.2767 139.425 28.7517 138.1 28.7517 135.875C28.7517 133.65 27.2767 132.375 24.8517 132.375ZM36.6022 148H34.0522V130.05H36.6022V148ZM48.1319 148V145.95C47.3069 147.425 45.8319 148.25 43.8819 148.25C41.1319 148.25 39.3319 146.675 39.3319 144.25C39.3319 141.65 41.4069 140.3 45.3569 140.3C46.1319 140.3 46.7569 140.325 47.8319 140.45V139.475C47.8319 137.575 46.8069 136.5 45.0569 136.5C43.2069 136.5 42.0819 137.6 42.0069 139.45H39.7069C39.8319 136.475 41.9569 134.5 45.0569 134.5C48.3319 134.5 50.2319 136.35 50.2319 139.5V148H48.1319ZM41.7319 144.175C41.7319 145.55 42.7569 146.45 44.3819 146.45C46.5069 146.45 47.8319 145.125 47.8319 143.1V142.025C46.8569 141.9 46.1569 141.875 45.5069 141.875C42.9819 141.875 41.7319 142.625 41.7319 144.175ZM60.9608 145.55V147.775C60.1858 148.125 59.5108 148.25 58.7108 148.25C56.2608 148.25 54.5608 146.925 54.5608 144V136.9H51.6358V134.75H54.5608V130.825H57.0858V134.75H61.0858V136.9H57.0858V143.425C57.0858 145.25 57.9608 145.9 59.3108 145.9C59.9108 145.9 60.4358 145.8 60.9608 145.55ZM71.5206 148V145.95C70.6956 147.425 69.2206 148.25 67.2706 148.25C64.5206 148.25 62.7206 146.675 62.7206 144.25C62.7206 141.65 64.7956 140.3 68.7456 140.3C69.5206 140.3 70.1456 140.325 71.2206 140.45V139.475C71.2206 137.575 70.1956 136.5 68.4456 136.5C66.5956 136.5 65.4706 137.6 65.3956 139.45H63.0956C63.2206 136.475 65.3456 134.5 68.4456 134.5C71.7206 134.5 73.6206 136.35 73.6206 139.5V148H71.5206ZM65.1206 144.175C65.1206 145.55 66.1456 146.45 67.7706 146.45C69.8956 146.45 71.2206 145.125 71.2206 143.1V142.025C70.2456 141.9 69.5456 141.875 68.8956 141.875C66.3706 141.875 65.1206 142.625 65.1206 144.175ZM80.5995 148H78.0745V136.9H75.1495V134.75H78.0745V133.775C78.0745 131.225 79.4495 129.825 81.9495 129.825C82.6995 129.825 83.2995 129.95 83.7995 130.15V132.2C83.3995 132.025 82.9495 131.975 82.4995 131.975C81.2995 131.975 80.5995 132.525 80.5995 133.8V134.75H84.2995V136.9H80.5995V148ZM91.4089 148.25C87.6589 148.25 84.9089 145.3 84.9089 141.375C84.9089 137.45 87.6589 134.5 91.4089 134.5C95.1589 134.5 97.9089 137.45 97.9089 141.375C97.9089 145.3 95.1589 148.25 91.4089 148.25ZM91.4089 146.025C93.5839 146.025 95.3089 144.275 95.3089 141.375C95.3089 138.475 93.5839 136.75 91.4089 136.75C89.2339 136.75 87.5339 138.475 87.5339 141.375C87.5339 144.275 89.2339 146.025 91.4089 146.025ZM103.008 141.225V148H100.483V134.75H102.833V137.55C103.758 135.725 105.758 134.575 107.933 134.575V137.2C105.083 137.05 103.008 138.3 103.008 141.225ZM112.456 148H109.931V134.75H112.281V136.95C113.181 135.425 114.606 134.5 116.431 134.5C118.381 134.5 119.856 135.5 120.456 137.25C121.381 135.55 122.906 134.5 124.931 134.5C127.656 134.5 129.406 136.275 129.406 139.425V148H126.881V140.225C126.881 138.025 125.906 136.725 124.056 136.725C122.331 136.725 120.931 138.175 120.931 140.4V148H118.406V140.225C118.406 138.025 117.431 136.725 115.581 136.725C113.831 136.725 112.456 138.175 112.456 140.4V148ZM140.808 148V145.95C139.983 147.425 138.508 148.25 136.558 148.25C133.808 148.25 132.008 146.675 132.008 144.25C132.008 141.65 134.083 140.3 138.033 140.3C138.808 140.3 139.433 140.325 140.508 140.45V139.475C140.508 137.575 139.483 136.5 137.733 136.5C135.883 136.5 134.758 137.6 134.683 139.45H132.383C132.508 136.475 134.633 134.5 137.733 134.5C141.008 134.5 142.908 136.35 142.908 139.5V148H140.808ZM134.408 144.175C134.408 145.55 135.433 146.45 137.058 146.45C139.183 146.45 140.508 145.125 140.508 143.1V142.025C139.533 141.9 138.833 141.875 138.183 141.875C135.658 141.875 134.408 142.625 134.408 144.175ZM150.558 141.375C150.558 137.35 152.858 134.5 156.433 134.5C158.208 134.5 159.758 135.4 160.683 137.025V130.05H163.208V148H160.858V145.625C159.908 147.3 158.308 148.25 156.433 148.25C152.858 148.25 150.558 145.35 150.558 141.375ZM153.183 141.375C153.183 144.325 154.733 146 156.933 146C159.083 146 160.683 144.25 160.683 141.325C160.683 138.35 159.033 136.725 156.933 136.725C154.733 136.725 153.183 138.375 153.183 141.375ZM172.168 148.25C168.343 148.25 165.768 145.475 165.768 141.3C165.768 137.375 168.443 134.5 172.093 134.5C176.043 134.5 178.668 137.7 178.218 142H168.343C168.543 144.7 169.893 146.275 172.118 146.275C173.993 146.275 175.293 145.25 175.718 143.525H178.218C177.568 146.475 175.293 148.25 172.168 148.25ZM172.043 136.4C170.018 136.4 168.643 137.85 168.368 140.325H175.543C175.418 137.875 174.093 136.4 172.043 136.4ZM197.127 134.75L192.152 148H189.402L184.427 134.75H187.152L190.827 145.1L194.552 134.75H197.127ZM203.955 148.25C200.13 148.25 197.555 145.475 197.555 141.3C197.555 137.375 200.23 134.5 203.88 134.5C207.83 134.5 210.455 137.7 210.005 142H200.13C200.33 144.7 201.68 146.275 203.905 146.275C205.78 146.275 207.08 145.25 207.505 143.525H210.005C209.355 146.475 207.08 148.25 203.955 148.25ZM203.83 136.4C201.805 136.4 200.43 137.85 200.155 140.325H207.33C207.205 137.875 205.88 136.4 203.83 136.4ZM215.215 140.525V148H212.69V134.75H215.04V136.95C215.94 135.475 217.44 134.5 219.265 134.5C221.99 134.5 223.79 136.25 223.79 139.425V148H221.265V140.275C221.265 138 220.265 136.725 218.39 136.725C216.665 136.725 215.215 138.175 215.215 140.525ZM234.569 145.55V147.775C233.794 148.125 233.119 148.25 232.319 148.25C229.869 148.25 228.169 146.925 228.169 144V136.9H225.244V134.75H228.169V130.825H230.694V134.75H234.694V136.9H230.694V143.425C230.694 145.25 231.569 145.9 232.919 145.9C233.519 145.9 234.044 145.8 234.569 145.55ZM245.129 148V145.95C244.304 147.425 242.829 148.25 240.879 148.25C238.129 148.25 236.329 146.675 236.329 144.25C236.329 141.65 238.404 140.3 242.354 140.3C243.129 140.3 243.754 140.325 244.829 140.45V139.475C244.829 137.575 243.804 136.5 242.054 136.5C240.204 136.5 239.079 137.6 239.004 139.45H236.704C236.829 136.475 238.954 134.5 242.054 134.5C245.329 134.5 247.229 136.35 247.229 139.5V148H245.129ZM238.729 144.175C238.729 145.55 239.754 146.45 241.379 146.45C243.504 146.45 244.829 145.125 244.829 143.1V142.025C243.854 141.9 243.154 141.875 242.504 141.875C239.979 141.875 238.729 142.625 238.729 144.175ZM261.105 144.05C261.105 146.65 259.08 148.25 255.555 148.25C252.055 148.25 249.98 146.525 249.73 143.675H252.155C252.255 145.325 253.58 146.35 255.605 146.35C257.38 146.35 258.555 145.725 258.555 144.475C258.555 143.375 257.88 142.9 256.23 142.575L254.08 142.175C251.63 141.7 250.255 140.45 250.255 138.45C250.255 136.125 252.28 134.5 255.355 134.5C258.53 134.5 260.68 136.2 260.905 138.925H258.48C258.33 137.325 257.155 136.4 255.38 136.4C253.78 136.4 252.705 137.075 252.705 138.225C252.705 139.3 253.38 139.8 254.98 140.1L257.23 140.525C259.855 141 261.105 142.15 261.105 144.05ZM274.536 148.25C270.711 148.25 268.136 145.475 268.136 141.3C268.136 137.375 270.811 134.5 274.461 134.5C278.411 134.5 281.036 137.7 280.586 142H270.711C270.911 144.7 272.261 146.275 274.486 146.275C276.361 146.275 277.661 145.25 278.086 143.525H280.586C279.936 146.475 277.661 148.25 274.536 148.25ZM274.411 136.4C272.386 136.4 271.011 137.85 270.736 140.325H277.911C277.786 137.875 276.461 136.4 274.411 136.4ZM284.084 148H281.234L285.934 141.225L281.534 134.75H284.459L287.734 139.75L291.009 134.75H293.734L289.384 141.3L294.034 148H291.134L287.584 142.725L284.084 148ZM302.477 133.425H299.752L302.252 129.875H305.227L302.477 133.425ZM301.052 148.25C297.302 148.25 294.552 145.3 294.552 141.375C294.552 137.45 297.302 134.5 301.052 134.5C304.802 134.5 307.552 137.45 307.552 141.375C307.552 145.3 304.802 148.25 301.052 148.25ZM301.052 146.025C303.227 146.025 304.952 144.275 304.952 141.375C304.952 138.475 303.227 136.75 301.052 136.75C298.877 136.75 297.177 138.475 297.177 141.375C297.177 144.275 298.877 146.025 301.052 146.025ZM315.182 153.1C311.707 153.1 309.457 151.25 309.307 148.25H311.757C311.907 150.1 313.107 151.1 315.157 151.1C317.432 151.1 318.632 149.875 318.632 147.6V145.2C317.882 146.8 316.382 147.725 314.582 147.725C311.282 147.725 308.932 145 308.932 141.1C308.932 137.15 311.182 134.5 314.507 134.5C316.407 134.5 317.907 135.425 318.807 137.1V134.75H321.157V147.55C321.157 151.025 318.932 153.1 315.182 153.1ZM311.482 141.1C311.482 143.85 312.832 145.525 315.032 145.525C317.182 145.525 318.632 143.8 318.632 141.175C318.632 138.425 317.207 136.675 315.032 136.675C312.857 136.675 311.482 138.375 311.482 141.1ZM330.103 148.25C326.278 148.25 323.703 145.475 323.703 141.3C323.703 137.375 326.378 134.5 330.028 134.5C333.978 134.5 336.603 137.7 336.153 142H326.278C326.478 144.7 327.828 146.275 330.053 146.275C331.928 146.275 333.228 145.25 333.653 143.525H336.153C335.503 146.475 333.228 148.25 330.103 148.25ZM329.978 136.4C327.953 136.4 326.578 137.85 326.303 140.325H333.478C333.353 137.875 332.028 136.4 329.978 136.4ZM341.362 140.525V148H338.837V134.75H341.187V136.95C342.087 135.475 343.587 134.5 345.412 134.5C348.137 134.5 349.937 136.25 349.937 139.425V148H347.412V140.275C347.412 138 346.412 136.725 344.537 136.725C342.812 136.725 341.362 138.175 341.362 140.525ZM361.316 148V145.95C360.491 147.425 359.016 148.25 357.066 148.25C354.316 148.25 352.516 146.675 352.516 144.25C352.516 141.65 354.591 140.3 358.541 140.3C359.316 140.3 359.941 140.325 361.016 140.45V139.475C361.016 137.575 359.991 136.5 358.241 136.5C356.391 136.5 355.266 137.6 355.191 139.45H352.891C353.016 136.475 355.141 134.5 358.241 134.5C361.516 134.5 363.416 136.35 363.416 139.5V148H361.316ZM354.916 144.175C354.916 145.55 355.941 146.45 357.566 146.45C359.691 146.45 361.016 145.125 361.016 143.1V142.025C360.041 141.9 359.341 141.875 358.691 141.875C356.166 141.875 354.916 142.625 354.916 144.175ZM377.292 144.05C377.292 146.65 375.267 148.25 371.742 148.25C368.242 148.25 366.167 146.525 365.917 143.675H368.342C368.442 145.325 369.767 146.35 371.792 146.35C373.567 146.35 374.742 145.725 374.742 144.475C374.742 143.375 374.067 142.9 372.417 142.575L370.267 142.175C367.817 141.7 366.442 140.45 366.442 138.45C366.442 136.125 368.467 134.5 371.542 134.5C374.717 134.5 376.867 136.2 377.092 138.925H374.667C374.517 137.325 373.342 136.4 371.567 136.4C369.967 136.4 368.892 137.075 368.892 138.225C368.892 139.3 369.567 139.8 371.167 140.1L373.417 140.525C376.042 141 377.292 142.15 377.292 144.05Z" fill="white"/>
<path d="M12 116L383 116" stroke="white" stroke-width="0.5"/>
<defs>
<clipPath id="clip0_2_143">
<rect width="371" height="103" fill="white" transform="translate(12)"/>
</clipPath>
</defs>
</svg>
