<svg width="149" height="41" viewBox="0 0 149 41" fill="none" xmlns="http://www.w3.org/2000/svg">
<g clip-path="url(#clip0_2_350)">
<path d="M20.516 31.7892C22.4546 31.7892 24.0318 33.3658 24.0318 35.3037C24.0318 37.2416 22.4546 38.8181 20.516 38.8181C18.5774 38.8181 17.0003 37.2416 17.0003 35.3037C17.0003 33.3658 18.5774 31.7892 20.516 31.7892ZM20.516 29.6064C17.3683 29.6064 14.8176 32.1571 14.8176 35.3028C14.8176 38.4484 17.3692 40.9991 20.516 40.9991C23.6629 40.9991 26.2145 38.4484 26.2145 35.3028C26.2145 32.1571 23.6629 29.6064 20.516 29.6064Z" fill="white"/>
<path d="M35.3344 16.9763C37.273 16.9763 38.8501 18.5529 38.8501 20.4907C38.8501 22.4286 37.273 24.0052 35.3344 24.0052C33.3958 24.0052 31.8187 22.4286 31.8187 20.4907C31.8187 18.5529 33.3958 16.9763 35.3344 16.9763ZM35.3344 14.7944C32.1866 14.7944 29.636 17.3451 29.636 20.4907C29.636 23.6364 32.1876 26.187 35.3344 26.187C38.4812 26.187 41.0328 23.6364 41.0328 20.4907C41.0328 17.3451 38.4812 14.7944 35.3344 14.7944Z" fill="white"/>
<path d="M20.516 2.18279C22.4546 2.18279 24.0318 3.75936 24.0318 5.69724C24.0318 7.63512 22.4546 9.21168 20.516 9.21168C19.577 9.21168 18.6939 8.84571 18.0306 8.18268C17.3664 7.51872 17.0012 6.63684 17.0012 5.69817C17.0012 3.76029 18.5784 2.18372 20.517 2.18372M20.516 0C17.3683 0 14.8176 2.55063 14.8176 5.69631C14.8176 8.84292 17.3692 11.3926 20.516 11.3926C23.6629 11.3926 26.2145 8.84199 26.2145 5.69631C26.2145 2.55063 23.6638 0 20.516 0Z" fill="white"/>
<path d="M25.9834 24.4476L24.4585 25.9719L35.2325 36.742L36.7575 35.2176L25.9834 24.4476Z" fill="white"/>
<path d="M35.2226 4.25211L24.4492 15.0215L25.9933 16.565L36.7666 5.79558L35.2226 4.25211Z" fill="white"/>
<path d="M5.69842 16.9763C7.63701 16.9763 9.21416 18.5529 9.21416 20.4907C9.21416 22.4286 7.63701 24.0052 5.69842 24.0052C3.75982 24.0052 2.18267 22.4286 2.18267 20.4907C2.18267 18.5529 3.75982 16.9763 5.69842 16.9763ZM5.69842 14.7944C2.55064 14.7944 0 17.3451 0 20.4907C0 23.6374 2.55157 26.187 5.69842 26.187C8.84619 26.187 11.3968 23.6364 11.3968 20.4907C11.3968 17.3441 8.84526 14.7944 5.69842 14.7944Z" fill="white"/>
<path d="M5.80918 4.25133L4.26514 5.7948L15.0385 16.5642L16.5825 15.0207L5.80918 4.25133Z" fill="white"/>
<path d="M4.27588 35.218L15.0495 24.4484L16.5726 25.9709L5.799 36.7405L4.27588 35.218Z" fill="white"/>
<path d="M57.1258 3.8208H61.5172L66.3456 18.6962H62.8279L61.8079 15.3885H56.4178L55.3977 18.6962H52.2341L57.1249 3.8208H57.1258ZM57.1472 12.9952H61.0803L59.124 6.56698L57.1472 12.9952Z" fill="white"/>
<path d="M66.8152 13.3901V13.2234C66.8152 9.70801 69.3332 7.56433 72.4344 7.56433C74.9525 7.56433 77.2832 8.6669 77.5543 11.7874H74.7028C74.4951 10.5182 73.7246 9.93616 72.4968 9.93616C70.9355 9.93616 69.895 11.1011 69.895 13.1815V13.3482C69.895 15.5328 70.8731 16.6559 72.5593 16.6559C73.7666 16.6559 74.7447 15.9482 74.89 14.555H77.6167C77.45 17.1345 75.5775 18.9244 72.4139 18.9244C69.2503 18.9244 66.8152 16.9483 66.8152 13.3901Z" fill="white"/>
<path d="M78.8276 15.679C78.8276 13.1404 81.1584 12.1841 84.4888 12.1841H85.7166V11.7473C85.7166 10.4576 85.3207 9.74984 83.9475 9.74984C82.7617 9.74984 82.2204 10.3533 82.0956 11.2892H79.2441C79.4313 8.70966 81.4714 7.56519 84.1348 7.56519C86.7982 7.56519 88.693 8.64727 88.693 11.6011V18.6952H85.7585V17.385C85.1344 18.2584 84.1767 18.9243 82.4701 18.9243C80.4933 18.9243 78.8276 17.967 78.8276 15.679ZM85.7166 14.8883V13.9729H84.5512C82.8026 13.9729 81.7835 14.3473 81.7835 15.5123C81.7835 16.3029 82.2623 16.8225 83.3653 16.8225C84.6975 16.8225 85.7175 16.0943 85.7175 14.8874L85.7166 14.8883Z" fill="white"/>
<path d="M90.3298 13.4115V13.2448C90.3298 9.66704 92.3905 7.56526 95.1162 7.56526C96.8648 7.56526 97.9464 8.33538 98.55 9.43795V3.8208H101.547V18.6962H98.55V16.8859C97.9883 17.9885 96.6561 18.9243 95.0538 18.9243C92.411 18.9243 90.3298 17.0312 90.3298 13.4115ZM98.6339 13.3072V13.1405C98.6339 10.9773 97.6762 9.8747 96.032 9.8747C94.3878 9.8747 93.4096 11.0192 93.4096 13.1824V13.3491C93.4096 15.5123 94.4502 16.5739 95.9491 16.5739C97.5309 16.5739 98.6339 15.5133 98.6339 13.3081V13.3072Z" fill="white"/>
<path d="M103.156 13.3901V13.2234C103.156 9.79089 105.591 7.56433 108.754 7.56433C111.564 7.56433 114.061 9.20794 114.061 13.0986V13.9311H106.215C106.298 15.7414 107.276 16.7816 108.92 16.7816C110.315 16.7816 111.001 16.1782 111.188 15.2628H114.04C113.686 17.6141 111.813 18.9244 108.837 18.9244C105.549 18.9244 103.156 16.8645 103.156 13.3901ZM111.127 12.0798C111.023 10.4362 110.191 9.64562 108.754 9.64562C107.402 9.64562 106.486 10.5405 106.257 12.0798H111.127Z" fill="white"/>
<path d="M115.786 7.81475H118.803V9.47885C119.344 8.45916 120.51 7.56519 122.134 7.56519C123.57 7.56519 124.652 8.16862 125.172 9.45837C126.046 8.14813 127.461 7.56519 128.835 7.56519C130.854 7.56519 132.415 8.83445 132.415 11.7259V18.6952H129.418V12.0583C129.418 10.6643 128.794 10.0404 127.712 10.0404C126.546 10.0404 125.61 10.7891 125.61 12.2669V18.6952H122.613V12.0583C122.613 10.6643 121.968 10.0404 120.907 10.0404C119.741 10.0404 118.805 10.7891 118.805 12.2669V18.6952H115.788V7.81475H115.786Z" fill="white"/>
<path d="M134.245 4.69427C134.245 3.75839 134.994 3.05066 135.952 3.05066C136.909 3.05066 137.679 3.75839 137.679 4.69427C137.679 5.63015 136.93 6.33789 135.952 6.33789C134.973 6.33789 134.245 5.63015 134.245 4.69427ZM134.474 7.81481H137.471V18.6952H134.474V7.81481Z" fill="white"/>
<path d="M139.136 15.679C139.136 13.1404 141.467 12.1841 144.797 12.1841H146.025V11.7473C146.025 10.4576 145.629 9.74984 144.256 9.74984C143.07 9.74984 142.529 10.3533 142.404 11.2892H139.552C139.739 8.70966 141.78 7.56519 144.443 7.56519C147.106 7.56519 149.001 8.64727 149.001 11.6011V18.6952H146.067V17.385C145.442 18.2584 144.485 18.9243 142.778 18.9243C140.801 18.9243 139.136 17.967 139.136 15.679ZM146.024 14.8883V13.9729H144.858C143.11 13.9729 142.091 14.3473 142.091 15.5123C142.091 16.3029 142.57 16.8225 143.672 16.8225C145.005 16.8225 146.025 16.0943 146.025 14.8874L146.024 14.8883Z" fill="white"/>
<path d="M80.7131 22.3987H84.118V37.2713H80.7131V22.3987Z" fill="white"/>
<path d="M52.2351 31.9894V31.8227C52.2351 28.2449 54.2957 26.1431 57.0215 26.1431C58.7701 26.1431 59.8516 26.9133 60.4553 28.0158V22.3987H63.4521V37.2741H60.4553V35.4638C59.8936 36.5663 58.5614 37.5022 56.9591 37.5022C54.3162 37.5022 52.2351 35.609 52.2351 31.9894ZM60.5391 31.8851V31.7184C60.5391 29.5551 59.5815 28.4526 57.9373 28.4526C56.293 28.4526 55.3149 29.5971 55.3149 31.7603V31.927C55.3149 34.0902 56.3554 35.1518 57.8543 35.1518C59.4361 35.1518 60.5391 34.0912 60.5391 31.886V31.8851Z" fill="white"/>
<path d="M65.062 31.9689V31.8022C65.062 28.3698 67.4971 26.1432 70.6608 26.1432C73.4704 26.1432 75.9679 27.7868 75.9679 31.6775V32.51H68.1213C68.2042 34.3203 69.1823 35.3605 70.8266 35.3605C72.2211 35.3605 72.9077 34.757 73.0949 33.8416H75.9465C75.5925 36.193 73.7191 37.5032 70.7437 37.5032C67.4552 37.5032 65.062 35.4433 65.062 31.9689ZM73.0325 30.6578C72.9282 29.0142 72.0963 28.2235 70.6598 28.2235C69.3072 28.2235 68.3914 29.1185 68.1623 30.6578H73.0325Z" fill="white"/>
<path d="M90.4779 22.3987H94.8693L99.6976 37.2741H96.18L95.1599 33.9664H89.7699L88.7498 37.2741H85.5862L90.4769 22.3987H90.4779ZM90.4984 31.5731H94.4314L92.4751 25.1449L90.4984 31.5731Z" fill="white"/>
</g>
<defs>
<clipPath id="clip0_2_350">
<rect width="149" height="41" fill="white"/>
</clipPath>
</defs>
</svg>
