<svg width="149" height="41" viewBox="0 0 149 41" fill="none" xmlns="http://www.w3.org/2000/svg">
<g clip-path="url(#clip0_2_227)">
<path d="M20.516 31.7892C22.4546 31.7892 24.0317 33.3658 24.0317 35.3037C24.0317 37.2416 22.4546 38.8181 20.516 38.8181C18.5774 38.8181 17.0002 37.2416 17.0002 35.3037C17.0002 33.3658 18.5774 31.7892 20.516 31.7892ZM20.516 29.6065C17.3682 29.6065 14.8176 32.1571 14.8176 35.3028C14.8176 38.4484 17.3691 40.9991 20.516 40.9991C23.6628 40.9991 26.2144 38.4484 26.2144 35.3028C26.2144 32.1571 23.6628 29.6065 20.516 29.6065Z" fill="#0000FF"/>
<path d="M35.3345 16.9762C37.2731 16.9762 38.8502 18.5528 38.8502 20.4907C38.8502 22.4286 37.2731 24.0051 35.3345 24.0051C33.3959 24.0051 31.8187 22.4286 31.8187 20.4907C31.8187 18.5528 33.3959 16.9762 35.3345 16.9762ZM35.3345 14.7944C32.1867 14.7944 29.636 17.345 29.636 20.4907C29.636 23.6364 32.1876 26.187 35.3345 26.187C38.4813 26.187 41.0329 23.6364 41.0329 20.4907C41.0329 17.345 38.4813 14.7944 35.3345 14.7944Z" fill="#0000FF"/>
<path d="M20.516 2.18279C22.4546 2.18279 24.0317 3.75936 24.0317 5.69724C24.0317 7.63512 22.4546 9.21168 20.516 9.21168C19.577 9.21168 18.6938 8.84571 18.0306 8.18268C17.3663 7.51872 17.0012 6.63684 17.0012 5.69817C17.0012 3.76029 18.5783 2.18372 20.5169 2.18372M20.516 0C17.3682 0 14.8176 2.55063 14.8176 5.69631C14.8176 8.84292 17.3691 11.3926 20.516 11.3926C23.6628 11.3926 26.2144 8.84199 26.2144 5.69631C26.2144 2.55063 23.6638 0 20.516 0Z" fill="#0000FF"/>
<path d="M25.9834 24.4475L24.4585 25.9719L35.2325 36.7419L36.7575 35.2175L25.9834 24.4475Z" fill="#0000FF"/>
<path d="M35.2227 4.25215L24.4493 15.0215L25.9934 16.565L36.7667 5.79562L35.2227 4.25215Z" fill="#0000FF"/>
<path d="M5.69842 16.9762C7.63701 16.9762 9.21416 18.5528 9.21416 20.4907C9.21416 22.4286 7.63701 24.0051 5.69842 24.0051C3.75982 24.0051 2.18267 22.4286 2.18267 20.4907C2.18267 18.5528 3.75982 16.9762 5.69842 16.9762ZM5.69842 14.7944C2.55064 14.7944 0 17.345 0 20.4907C0 23.6373 2.55157 26.187 5.69842 26.187C8.84619 26.187 11.3968 23.6364 11.3968 20.4907C11.3968 17.3441 8.84526 14.7944 5.69842 14.7944Z" fill="#0000FF"/>
<path d="M5.80918 4.25138L4.26514 5.79485L15.0385 16.5642L16.5825 15.0208L5.80918 4.25138Z" fill="#0000FF"/>
<path d="M4.27588 35.218L15.0495 24.4484L16.5726 25.9709L5.799 36.7406L4.27588 35.218Z" fill="#0000FF"/>
<path d="M57.1257 3.82082H61.5172L66.3455 18.6962H62.8279L61.8078 15.3885H56.4177L55.3977 18.6962H52.2341L57.1248 3.82082H57.1257ZM57.1472 12.9953H61.0803L59.124 6.567L57.1472 12.9953Z" fill="black"/>
<path d="M66.815 13.3901V13.2234C66.815 9.70803 69.333 7.56435 72.4342 7.56435C74.9523 7.56435 77.2831 8.66692 77.5541 11.7875H74.7026C74.4949 10.5182 73.7245 9.93618 72.4966 9.93618C70.9353 9.93618 69.8948 11.1011 69.8948 13.1815V13.3482C69.8948 15.5328 70.8729 16.6559 72.5591 16.6559C73.7664 16.6559 74.7445 15.9482 74.8899 14.5551H77.6166C77.4498 17.1346 75.5774 18.9244 72.4137 18.9244C69.2501 18.9244 66.815 16.9483 66.815 13.3901Z" fill="black"/>
<path d="M78.8276 15.679C78.8276 13.1405 81.1584 12.1842 84.4887 12.1842H85.7165V11.7474C85.7165 10.4577 85.3206 9.74993 83.9475 9.74993C82.7616 9.74993 82.2204 10.3534 82.0955 11.2892H79.244C79.4312 8.70975 81.4714 7.56528 84.1347 7.56528C86.7981 7.56528 88.6929 8.64736 88.6929 11.6012V18.6953H85.7585V17.3851C85.1343 18.2585 84.1767 18.9244 82.47 18.9244C80.4932 18.9244 78.8276 17.9671 78.8276 15.679ZM85.7165 14.8884V13.973H84.5511C82.8026 13.973 81.7834 14.3474 81.7834 15.5124C81.7834 16.303 82.2623 16.8226 83.3653 16.8226C84.6974 16.8226 85.7175 16.0944 85.7175 14.8875L85.7165 14.8884Z" fill="black"/>
<path d="M90.3297 13.4115V13.2448C90.3297 9.66705 92.3903 7.56528 95.1161 7.56528C96.8647 7.56528 97.9462 8.3354 98.5499 9.43797V3.82082H101.547V18.6962H98.5499V16.8859C97.9881 17.9885 96.656 18.9244 95.0537 18.9244C92.4108 18.9244 90.3297 17.0312 90.3297 13.4115ZM98.6337 13.3072V13.1405C98.6337 10.9773 97.6761 9.87472 96.0318 9.87472C94.3876 9.87472 93.4095 11.0192 93.4095 13.1824V13.3491C93.4095 15.5124 94.45 16.574 95.9489 16.574C97.5307 16.574 98.6337 15.5133 98.6337 13.3081V13.3072Z" fill="black"/>
<path d="M103.156 13.3901V13.2234C103.156 9.79091 105.591 7.56435 108.754 7.56435C111.564 7.56435 114.061 9.20796 114.061 13.0986V13.9311H106.215C106.298 15.7414 107.276 16.7816 108.92 16.7816C110.315 16.7816 111.001 16.1782 111.189 15.2628H114.04C113.686 17.6141 111.813 18.9244 108.837 18.9244C105.549 18.9244 103.156 16.8645 103.156 13.3901ZM111.127 12.0799C111.023 10.4362 110.191 9.64564 108.754 9.64564C107.402 9.64564 106.486 10.5405 106.257 12.0799H111.127Z" fill="black"/>
<path d="M115.786 7.81485H118.803V9.47895C119.344 8.45925 120.51 7.56528 122.133 7.56528C123.57 7.56528 124.652 8.16871 125.172 9.45846C126.046 8.14822 127.461 7.56528 128.835 7.56528C130.854 7.56528 132.415 8.83454 132.415 11.726V18.6953H129.418V12.0584C129.418 10.6644 128.794 10.0405 127.712 10.0405C126.546 10.0405 125.61 10.7892 125.61 12.267V18.6953H122.613V12.0584C122.613 10.6644 121.968 10.0405 120.907 10.0405C119.741 10.0405 118.805 10.7892 118.805 12.267V18.6953H115.788V7.81485H115.786Z" fill="black"/>
<path d="M134.245 4.69431C134.245 3.75843 134.994 3.0507 135.952 3.0507C136.909 3.0507 137.679 3.75843 137.679 4.69431C137.679 5.63019 136.93 6.33792 135.952 6.33792C134.973 6.33792 134.245 5.63019 134.245 4.69431ZM134.474 7.81485H137.471V18.6953H134.474V7.81485Z" fill="black"/>
<path d="M139.136 15.679C139.136 13.1405 141.466 12.1842 144.797 12.1842H146.025V11.7474C146.025 10.4577 145.629 9.74993 144.256 9.74993C143.07 9.74993 142.528 10.3534 142.404 11.2892H139.552C139.739 8.70975 141.779 7.56528 144.443 7.56528C147.106 7.56528 149.001 8.64736 149.001 11.6012V18.6953H146.066V17.3851C145.442 18.2585 144.485 18.9244 142.778 18.9244C140.801 18.9244 139.136 17.9671 139.136 15.679ZM146.024 14.8884V13.973H144.858C143.11 13.973 142.091 14.3474 142.091 15.5124C142.091 16.303 142.569 16.8226 143.672 16.8226C145.005 16.8226 146.025 16.0944 146.025 14.8875L146.024 14.8884Z" fill="black"/>
<path d="M80.7131 22.3988H84.118V37.2714H80.7131V22.3988Z" fill="black"/>
<path d="M52.235 31.9895V31.8228C52.235 28.245 54.2956 26.1432 57.0214 26.1432C58.77 26.1432 59.8515 26.9134 60.4552 28.0159V22.3988H63.452V37.2742H60.4552V35.4639C59.8934 36.5664 58.5613 37.5023 56.959 37.5023C54.3161 37.5023 52.235 35.6091 52.235 31.9895ZM60.539 31.8852V31.7185C60.539 29.5552 59.5814 28.4527 57.9371 28.4527C56.2929 28.4527 55.3148 29.5971 55.3148 31.7604V31.9271C55.3148 34.0903 56.3553 35.1519 57.8542 35.1519C59.436 35.1519 60.539 34.0912 60.539 31.8861V31.8852Z" fill="black"/>
<path d="M65.0618 31.969V31.8023C65.0618 28.3698 67.4969 26.1432 70.6605 26.1432C73.4701 26.1432 75.9677 27.7868 75.9677 31.6775V32.51H68.121C68.204 34.3203 69.1821 35.3605 70.8263 35.3605C72.2209 35.3605 72.9075 34.7571 73.0947 33.8417H75.9462C75.5922 36.193 73.7189 37.5033 70.7434 37.5033C67.455 37.5033 65.0618 35.4434 65.0618 31.969ZM73.0323 30.6578C72.9279 29.0142 72.0961 28.2236 70.6596 28.2236C69.3069 28.2236 68.3912 29.1185 68.162 30.6578H73.0323Z" fill="black"/>
<path d="M90.4778 22.3988H94.8692L99.6975 37.2742H96.1799L95.1599 33.9665H89.7698L88.7497 37.2742H85.5861L90.4769 22.3988H90.4778ZM90.4983 31.5732H94.4314L92.4751 25.145L90.4983 31.5732Z" fill="black"/>
</g>
<defs>
<clipPath id="clip0_2_227">
<rect width="149" height="41" fill="white"/>
</clipPath>
</defs>
</svg>
